<svg width="682" height="579" viewBox="0 0 682 579" fill="none" xmlns="http://www.w3.org/2000/svg">
<path d="M321.867 1.46671C310 3.46671 294.4 9.06671 282.667 15.6C267.6 24 247.2 44.2667 239.067 58.6667C212.267 106.267 219.867 163.733 258.133 201.867C280.8 224.667 309.067 236.267 341.333 236.267C373.6 236.267 401.867 224.667 424.533 201.867C462.8 163.733 470.4 106.267 443.6 58.6667C435.467 44.2667 415.067 24 400 15.6C376.267 2.40004 347.6 -2.79996 321.867 1.46671Z" fill="white"/>
<path d="M110.933 113.333C84.6667 120.267 62 140.133 51.6 165.333C46.6666 177.333 45.2 185.333 45.2 199.467C45.2 213.733 47.7333 225.067 54 238C64.9333 260.667 87.0667 278.533 112 284.8C123.333 287.733 143.333 287.6 154.667 284.667C174.4 279.6 195.2 264.933 206.533 248.133C224.533 221.467 226.267 186.133 211.067 156.933C204.267 143.867 188.133 127.733 175.067 120.933C155.6 110.8 131.6 108 110.933 113.333Z" fill="white"/>
<path d="M526.933 113.333C504.4 119.333 482.133 136.8 471.6 156.933C459.467 180.267 457.867 207.6 467.467 231.733C477.6 256.933 501.333 277.733 528 284.667C539.333 287.6 559.333 287.733 570.667 284.8C602.133 276.8 627.2 251.733 635.333 220.133C637.867 210.4 638.267 190.533 636.133 180.667C629.067 148.267 603.2 121.467 571.2 113.333C557.867 109.867 540.133 109.867 526.933 113.333Z" fill="white"/>
<path d="M260.667 263.333C240.4 267.867 227.067 275.333 211.867 290.533C199.2 303.2 192.4 314 186.8 330.4L183.333 340.667L182.933 452.667C182.667 562.8 182.667 564.8 185.333 569.067C186.8 571.467 189.867 574.533 192.267 576C196.533 578.667 199.333 578.667 341.333 578.667C483.333 578.667 486.133 578.667 490.4 576C492.8 574.533 495.867 571.467 497.333 569.067C500 564.8 500 562.8 499.733 452.667L499.333 340.667L495.867 330.4C490.267 314 483.467 303.2 470.8 290.533C458.133 277.867 447.333 271.067 430.933 265.467L420.667 262L344.667 261.733C284.533 261.6 266.933 261.867 260.667 263.333Z" fill="white"/>
<path d="M85.6 313.467C47.3333 318.4 15.8667 345.6 3.73332 384C0.666656 394 0.666656 394.267 0.666656 463.333V532.667L3.73332 540.267C9.99999 555.867 22.9333 568.667 38.4 574.933C45.7333 577.867 47.3333 578 96.2667 578.4L146.533 578.8L144.933 574.4C142.933 568.533 141.867 364.8 143.867 346.667C144.667 339.733 146.267 330.4 147.467 326C148.667 321.6 150 316.667 150.267 314.933L150.933 312L122.533 312.133C106.8 312.267 90.1333 312.8 85.6 313.467Z" fill="white"/>
<path d="M532.4 314.933C532.667 316.667 534 321.6 535.2 326C536.4 330.4 538 339.733 538.8 346.667C540.8 364.8 539.733 568.533 537.733 574.4L536.133 578.8L586.4 578.4C635.333 578 636.933 577.867 644.267 574.933C659.733 568.667 672.667 555.867 678.933 540.267L682 532.667V463.333C682 394.133 682 394 678.8 384C668.8 352 646.267 328.267 616 318C602.533 313.467 588.933 312 558.267 312H531.733L532.4 314.933Z" fill="white"/>
</svg>
