<svg width="627" height="627" viewBox="0 0 627 627" fill="none" xmlns="http://www.w3.org/2000/svg">
<path d="M296 1.46668C234.267 9.06668 184.267 49.7333 164.8 108.133C154.4 139.333 154.933 178.133 166.133 209.6C181.067 251.2 213.733 285.333 254.133 301.467C275.733 310.133 287.733 312.4 312 312.533C325.733 312.533 336.933 311.867 342 310.8C364.8 305.733 387.333 296.133 404 284.267C422.8 270.933 443.2 246.933 453.867 225.6C467.333 198.8 472.667 160.667 467.333 130C456.133 66.4 407.6 16.6667 343.333 3.46668C330.8 0.933344 308.267 -0.133323 296 1.46668ZM345.733 33.2C390.8 45.2 424.933 79.8667 437.6 126.133C441.733 141.467 441.733 170.667 437.6 187.2C426 233.2 390.667 268.8 344.533 280.8C325.867 285.733 301.067 285.733 282.533 280.933C236 268.8 200.667 233.333 189.067 187.2C184.933 170.8 184.933 141.467 189.067 126.4C202.533 77.0667 238.667 42.4 288 31.3333C300.667 28.5333 332 29.4667 345.733 33.2Z" fill="white"/>
<path d="M305.867 59.8667C300.933 62.9333 298.667 68.5333 298.667 78.1333V85.3333H283.867C266.667 85.3333 261.333 87.0667 258.133 94C255.2 100.133 255.067 155.067 257.867 161.867C261.467 170.667 261.867 170.667 303.6 170.667H341.333V185.333V200H303.467C267.6 200 265.467 200.133 262.267 202.667C257.2 206.667 255.333 213.333 257.867 219.067C260.933 226.4 265.333 228 283.333 228H298.667V235.333C298.667 248.667 303.867 256 313.333 256C322.8 256 328 248.667 328 235.333V228H343.333C361.2 228 365.733 226.4 368.8 219.333C371.467 212.8 371.467 157.867 368.8 151.333C365.333 143.067 363.067 142.667 322 142.667H285.333V128.667V114.667H321.467C361.867 114.667 364.667 114.133 368.533 106C369.733 103.6 370.667 100.933 370.667 100C370.667 99.0667 369.733 96.4 368.533 94C365.333 87.0667 360 85.3333 342.8 85.3333H328V78C328 68.5333 325.333 62 320.133 59.4667C314.8 56.6667 310.933 56.8 305.867 59.8667Z" fill="white"/>
<path d="M580.933 172C569.733 174.8 560.533 182 555.2 192.133C554 194.4 547.6 229.067 540.667 271.067C533.2 315.333 527.467 346.4 526.4 347.333C523.6 350 477.067 376.133 476.4 375.6C476.133 375.2 481.067 364.667 487.333 352C494.267 338.267 499.333 326.267 500.133 321.867C501.733 313.333 499.867 300.8 495.733 292.933C491.6 284.8 481.733 275.067 473.467 271.067C466.8 267.733 464.533 267.333 452.667 267.333C440.667 267.333 438.667 267.733 432.4 270.933C428.533 273.067 423.2 276.533 420.533 278.933C417.867 281.333 399.067 308 378.8 338.4L342 393.6L341.6 503.6C341.333 601.867 341.467 614 343.467 618C347.6 626.933 344.8 626.667 441.333 626.667C537.733 626.667 535.067 626.933 539.2 618C540.933 614.4 541.333 608.133 541.333 584.133C541.333 544.533 540.533 542.533 522.8 541.333L512.667 540.667L512.267 536.533C511.867 532.933 518.533 524.267 568.533 461.6C609.333 410.533 625.467 389.6 626 386.4C626.4 384 626.667 340.933 626.4 290.667L626 199.333L622.933 193.067C619.2 185.733 610.267 176.933 603.333 174.133C596.933 171.467 587.2 170.533 580.933 172ZM594.933 202.267C597.2 204.267 597.333 208.8 597.333 292.267V380L543.867 446.933C514.4 483.733 488.933 515.867 487.2 518.4C484.533 522.133 484 524.8 484 532.133V541.333H427.333H370.667V471.6V402L404.533 351.2C423.867 322.4 440 299.467 442.133 298C454.667 289.733 472 299.067 472 314.133C472 318.933 468.133 327.733 449.2 365.467C424.133 415.867 424 416.4 432.133 423.2C440 429.867 441.067 429.467 497.867 396.933C527.067 380.267 550.8 365.867 552.133 364C554 361.467 557.867 340.8 567.6 282.8C577.733 221.333 581.067 204.267 582.933 202.4C586 199.333 591.733 199.333 594.933 202.267ZM512 583.333V597.333H441.333H370.667V583.333V569.333H441.333H512V583.333Z" fill="white"/>
<path d="M23.2 174.533C14.9333 178.4 7.33331 185.867 3.86664 193.733L0.666643 200.667L0.266643 291.333C-2.33892e-05 341.2 0.266643 384 0.666643 386.4C1.19998 389.6 17.3333 410.667 58.1333 461.6C108.133 524.267 114.8 532.933 114.4 536.533L114 540.667L103.867 541.333C86.1333 542.533 85.3333 544.533 85.3333 584.133C85.3333 608.133 85.7333 614.4 87.4666 618C91.6 626.933 88.9333 626.667 185.333 626.667C281.867 626.667 279.067 626.933 283.2 618C285.2 614 285.333 601.867 285.067 503.733L284.667 394L247.867 338.667C210 281.6 206 276.667 193.467 270.4C188.267 267.867 185.2 267.333 174 267.333C162.133 267.333 159.867 267.733 153.067 271.067C143.2 275.867 133.067 286.933 129.2 297.067C127.2 302.4 126.267 307.733 126.267 315.067L126.133 325.333L138.533 350.133C145.2 363.867 150.533 375.2 150.267 375.467C150 375.867 138.4 369.6 124.533 361.733C110.667 354 99.2 347.467 99.0666 347.333C98.9333 347.333 93.3333 314.533 86.6666 274.667C80 234.667 73.7333 199.333 72.6666 196C70.1333 188.133 64 180.933 56.4 176.4C48 171.6 31.4666 170.533 23.2 174.533ZM43.7333 202.4C45.6 204.267 48.9333 221.333 59.0666 282.8C68.5333 339.6 72.6666 361.6 74.4 363.867C75.7333 365.6 100.133 380.533 128.667 396.8C186 429.6 186.933 430 194.667 422.933C202.533 415.867 202.4 415.733 177.467 365.6C160.933 332.4 154.667 318.533 154.667 315.067C154.667 300.533 168.533 291.2 181.733 297.067C187.467 299.6 189.467 302.4 221.867 350.8L256 402V471.6V541.333H199.333H142.667V532.133C142.667 524.8 142.133 522.133 139.467 518.4C137.733 515.867 112.267 483.733 82.8 446.933L29.3333 380V292.4C29.3333 212.8 29.6 204.667 31.6 202.4C34.4 199.333 40.6666 199.333 43.7333 202.4ZM256 583.333V597.333H185.333H114.667V583.333V569.333H185.333H256V583.333Z" fill="white"/>
</svg>
